<svg width="25" height="25" viewBox="0 0 25 25" fill="none" xmlns="http://www.w3.org/2000/svg">
<rect width="25" height="25" fill="#1E1E1E"/>
<g clip-path="url(#clip0_0_1)">
<rect width="1440" height="7697" transform="translate(-607 -920)" fill="#F1F1F1"/>
<g filter="url(#filter0_d_0_1)">
<rect x="-50" y="-25" width="325" height="75" rx="10" fill="#CA6C26" shape-rendering="crispEdges"/>
<mask id="path-2-inside-1_0_1" fill="white">
<path fill-rule="evenodd" clip-rule="evenodd" d="M23.4055 2.03415C24.4907 3.12072 25.0265 4.38448 24.999 5.7705C24.9756 7.09059 24.4426 8.37222 23.7104 9.5673C22.7351 11.1635 21.2446 12.8476 19.5782 14.5743L18.6551 15.5207L17.7072 16.4741L15.9626 18.2159L14.946 19.2186C13.0887 21.0277 11.2781 22.6624 9.56783 23.7091C8.37268 24.4413 7.09098 24.9729 5.77082 24.999C4.38472 25.0265 3.12089 24.4907 2.03426 23.4042C0.403639 21.7736 -0.295592 18.8093 0.115155 15.6499C0.517659 12.5509 1.99855 9.05218 5.01252 5.86941L5.45624 5.41335C8.74908 2.13031 12.417 0.535488 15.6494 0.115148C18.8103 -0.295576 21.7748 0.403617 23.4055 2.03415ZM21.463 3.97788C20.6649 3.17978 18.7045 2.48883 16.0038 2.83912C15.4131 2.91604 14.7963 3.04242 14.163 3.22511C14.5201 3.63721 14.9872 3.93255 15.5834 4.13173C15.7567 4.18702 15.9174 4.27619 16.0559 4.39406C16.1945 4.51193 16.3083 4.65615 16.3907 4.81835C16.4731 4.98055 16.5224 5.1575 16.5359 5.33892C16.5493 5.52035 16.5266 5.70264 16.469 5.87521C16.4114 6.04778 16.3201 6.20719 16.2004 6.34419C16.0807 6.48119 15.935 6.59305 15.7717 6.67328C15.6084 6.75351 15.4308 6.8005 15.2492 6.81154C15.0676 6.82257 14.8856 6.79743 14.7138 6.73756C13.3264 6.27601 12.2576 5.44357 11.5433 4.28008C10.2942 4.93792 9.13373 5.75168 8.08969 6.70185C8.30811 7.0274 8.60072 7.38868 8.95514 7.74308C9.5376 8.32414 10.1338 8.74036 10.5707 8.92855L10.7259 8.98899C11.0716 9.10411 11.3575 9.35187 11.5206 9.67774C11.6837 10.0036 11.7106 10.3809 11.5955 10.7267C11.4803 11.0724 11.2326 11.3582 10.9067 11.5213C10.5808 11.6844 10.2034 11.7113 9.85769 11.5962C8.84387 11.2583 7.81631 10.4877 7.01405 9.68544C6.7092 9.38135 6.42381 9.05836 6.15959 8.71838C5.28545 9.77296 4.54959 10.9349 3.96986 12.1759C4.34214 13.0056 4.95345 13.5413 5.86973 13.8463C6.2108 13.9651 6.49134 14.2135 6.65062 14.5376C6.8099 14.8618 6.83511 15.2356 6.72078 15.5782C6.60646 15.9208 6.3618 16.2046 6.03977 16.3681C5.71774 16.5317 5.34426 16.5619 5.00016 16.4521C4.24931 16.2096 3.55307 15.8228 2.95054 15.3133C2.90658 15.5468 2.86812 15.7776 2.84065 16.0043C2.48897 18.7049 3.17996 20.6651 3.9781 21.4632C4.59078 22.0758 5.15402 22.264 5.71862 22.253C6.34779 22.2407 7.13769 21.9769 8.13365 21.367C9.44144 20.5676 10.8646 19.3272 12.4376 17.823L13.3099 16.9754L14.6767 15.6196L16.534 13.7583L17.405 12.871C19.0988 11.1264 20.4945 9.56043 21.3668 8.13457C21.9768 7.13867 22.2405 6.34882 22.2529 5.71968C22.2639 5.15648 22.0757 4.59191 21.463 3.97788Z"/>
</mask>
<path fill-rule="evenodd" clip-rule="evenodd" d="M23.4055 2.03415C24.4907 3.12072 25.0265 4.38448 24.999 5.7705C24.9756 7.09059 24.4426 8.37222 23.7104 9.5673C22.7351 11.1635 21.2446 12.8476 19.5782 14.5743L18.6551 15.5207L17.7072 16.4741L15.9626 18.2159L14.946 19.2186C13.0887 21.0277 11.2781 22.6624 9.56783 23.7091C8.37268 24.4413 7.09098 24.9729 5.77082 24.999C4.38472 25.0265 3.12089 24.4907 2.03426 23.4042C0.403639 21.7736 -0.295592 18.8093 0.115155 15.6499C0.517659 12.5509 1.99855 9.05218 5.01252 5.86941L5.45624 5.41335C8.74908 2.13031 12.417 0.535488 15.6494 0.115148C18.8103 -0.295576 21.7748 0.403617 23.4055 2.03415ZM21.463 3.97788C20.6649 3.17978 18.7045 2.48883 16.0038 2.83912C15.4131 2.91604 14.7963 3.04242 14.163 3.22511C14.5201 3.63721 14.9872 3.93255 15.5834 4.13173C15.7567 4.18702 15.9174 4.27619 16.0559 4.39406C16.1945 4.51193 16.3083 4.65615 16.3907 4.81835C16.4731 4.98055 16.5224 5.1575 16.5359 5.33892C16.5493 5.52035 16.5266 5.70264 16.469 5.87521C16.4114 6.04778 16.3201 6.20719 16.2004 6.34419C16.0807 6.48119 15.935 6.59305 15.7717 6.67328C15.6084 6.75351 15.4308 6.8005 15.2492 6.81154C15.0676 6.82257 14.8856 6.79743 14.7138 6.73756C13.3264 6.27601 12.2576 5.44357 11.5433 4.28008C10.2942 4.93792 9.13373 5.75168 8.08969 6.70185C8.30811 7.0274 8.60072 7.38868 8.95514 7.74308C9.5376 8.32414 10.1338 8.74036 10.5707 8.92855L10.7259 8.98899C11.0716 9.10411 11.3575 9.35187 11.5206 9.67774C11.6837 10.0036 11.7106 10.3809 11.5955 10.7267C11.4803 11.0724 11.2326 11.3582 10.9067 11.5213C10.5808 11.6844 10.2034 11.7113 9.85769 11.5962C8.84387 11.2583 7.81631 10.4877 7.01405 9.68544C6.7092 9.38135 6.42381 9.05836 6.15959 8.71838C5.28545 9.77296 4.54959 10.9349 3.96986 12.1759C4.34214 13.0056 4.95345 13.5413 5.86973 13.8463C6.2108 13.9651 6.49134 14.2135 6.65062 14.5376C6.8099 14.8618 6.83511 15.2356 6.72078 15.5782C6.60646 15.9208 6.3618 16.2046 6.03977 16.3681C5.71774 16.5317 5.34426 16.5619 5.00016 16.4521C4.24931 16.2096 3.55307 15.8228 2.95054 15.3133C2.90658 15.5468 2.86812 15.7776 2.84065 16.0043C2.48897 18.7049 3.17996 20.6651 3.9781 21.4632C4.59078 22.0758 5.15402 22.264 5.71862 22.253C6.34779 22.2407 7.13769 21.9769 8.13365 21.367C9.44144 20.5676 10.8646 19.3272 12.4376 17.823L13.3099 16.9754L14.6767 15.6196L16.534 13.7583L17.405 12.871C19.0988 11.1264 20.4945 9.56043 21.3668 8.13457C21.9768 7.13867 22.2405 6.34882 22.2529 5.71968C22.2639 5.15648 22.0757 4.59191 21.463 3.97788Z" fill="#F1F1F1" stroke="#F1F1F1" stroke-width="2" mask="url(#path-2-inside-1_0_1)"/>
</g>
</g>
<defs>
<filter id="filter0_d_0_1" x="-86" y="-41" width="405" height="155" filterUnits="userSpaceOnUse" color-interpolation-filters="sRGB">
<feFlood flood-opacity="0" result="BackgroundImageFix"/>
<feColorMatrix in="SourceAlpha" type="matrix" values="0 0 0 0 0 0 0 0 0 0 0 0 0 0 0 0 0 0 127 0" result="hardAlpha"/>
<feOffset dx="4" dy="24"/>
<feGaussianBlur stdDeviation="20"/>
<feComposite in2="hardAlpha" operator="out"/>
<feColorMatrix type="matrix" values="0 0 0 0 0.960784 0 0 0 0 0.65098 0 0 0 0 0.419608 0 0 0 0.25 0"/>
<feBlend mode="normal" in2="BackgroundImageFix" result="effect1_dropShadow_0_1"/>
<feBlend mode="normal" in="SourceGraphic" in2="effect1_dropShadow_0_1" result="shape"/>
</filter>
<clipPath id="clip0_0_1">
<rect width="1440" height="7697" fill="white" transform="translate(-607 -920)"/>
</clipPath>
</defs>
</svg>
